<svg width="210" height="167" viewBox="0 0 210 167" fill="none" xmlns="http://www.w3.org/2000/svg">
<g clip-path="url(#clip0_16_515)">
<path d="M86.0947 98.4587C86.1586 98.1277 86.8934 87.6143 87.0622 86.5294C87.2311 85.4399 96.6096 90.846 96.6096 90.846C96.6096 90.846 96.6598 97.7002 96.4498 99.5757C95.4367 108.526 86.0947 98.4587 86.0947 98.4587Z" fill="#F9F9F9"/>
<path d="M89.3898 88.6073C89.3898 88.6073 89.7184 94.8592 96.6096 96.8497L96.6415 91.4804L89.3898 88.6073Z" fill="#F9F9F9"/>
<path d="M98.1476 71.4834C98.1476 71.4834 100.087 71.7409 101.516 77.1423C102.944 82.5392 104.82 91.3839 101.52 93.7283C98.4488 95.9073 87.254 92.1148 87.254 92.1148L84.4108 73.2027C84.4108 73.2027 89.0977 68.6517 98.1476 71.4834Z" fill="#F9F9F9"/>
<path d="M95.945 82.6744C95.651 82.6968 95.4406 83.0884 95.4751 83.5492C95.5096 84.01 95.776 84.3654 96.0701 84.343C96.3642 84.3207 96.5745 83.929 96.54 83.4682C96.5055 83.0075 96.2391 82.6521 95.945 82.6744Z" fill="#282A2F"/>
<path d="M101.295 81.5337C101.001 81.5561 100.79 81.9478 100.825 82.4085C100.859 82.8693 101.126 83.2247 101.42 83.2024C101.714 83.18 101.924 82.7883 101.89 82.3275C101.855 81.8668 101.589 81.5114 101.295 81.5337Z" fill="#282A2F"/>
<path d="M99.2885 86.9018C99.2338 86.9018 99.1881 86.865 99.179 86.8098C99.1653 86.7455 99.2064 86.6857 99.2657 86.6719C100.425 86.4329 100.68 85.3526 100.726 85.0905L99.1288 83.5965C99.1105 83.5781 99.1014 83.5597 99.0968 83.5368L98.6405 81.3624C98.6268 81.298 98.6678 81.2383 98.7272 81.2245C98.7911 81.2107 98.8504 81.252 98.8641 81.3118L99.3159 83.4494L100.931 84.9618C100.959 84.9848 100.973 85.0216 100.968 85.0584C100.968 85.0722 100.776 86.5938 99.3159 86.8972C99.3022 86.9018 99.2976 86.9018 99.2885 86.9018Z" fill="#282A2F"/>
<path d="M99.0512 88.736C98.3804 88.736 97.4083 88.6395 96.6872 88.166C96.6325 88.1292 96.6188 88.0603 96.6553 88.0051C96.6918 87.9499 96.7602 87.9361 96.815 87.9729C97.9331 88.7084 99.7814 88.4648 99.7997 88.4648C99.8636 88.4556 99.9183 88.5016 99.9275 88.5613C99.9366 88.6257 99.8909 88.6809 99.8316 88.6901C99.7997 88.6947 99.4893 88.736 99.0512 88.736Z" fill="#282A2F"/>
<path d="M92.192 81.5463C92.1509 81.5463 92.1098 81.5233 92.0916 81.4819C92.0642 81.4268 92.087 81.3578 92.1418 81.3302C94.3597 80.2315 96.0027 80.397 96.0711 80.4062C96.135 80.4154 96.1807 80.4706 96.1715 80.5349C96.1624 80.5993 96.1076 80.6453 96.0437 80.6361C96.0255 80.6361 94.3962 80.4706 92.2422 81.5371C92.2239 81.5417 92.2057 81.5463 92.192 81.5463Z" fill="#282A2F"/>
<path d="M99.7678 79.5742C99.7221 79.5742 99.681 79.5466 99.6628 79.5052C99.64 79.4454 99.6674 79.3811 99.7267 79.3535C99.7814 79.3305 101.132 78.7743 101.844 79.0225C101.904 79.0409 101.936 79.1099 101.917 79.1696C101.899 79.2294 101.831 79.2616 101.771 79.2432C101.141 79.0225 99.8271 79.565 99.818 79.5696C99.7997 79.5742 99.786 79.5742 99.7678 79.5742Z" fill="#282A2F"/>
<path d="M89.1844 83.6471C89.1844 83.6471 86.2864 82.1347 85.0633 84.6492C83.3428 88.1797 87.6327 90.5288 89.6271 89.3658C91.6214 88.2073 89.1844 83.6471 89.1844 83.6471Z" fill="#F9F9F9"/>
<path d="M86.4643 88.097C86.4324 88.097 86.4005 88.0832 86.3776 88.0556C85.6839 87.196 85.4147 86.4007 85.5744 85.6882C85.7707 84.8239 86.5511 84.3412 86.9983 84.1298C87.7331 83.785 88.5043 84.1666 88.5408 84.185C88.5956 84.2125 88.6184 84.2815 88.591 84.3412C88.5637 84.3964 88.4952 84.4194 88.4359 84.3918C88.4268 84.3872 87.7285 84.0424 87.0941 84.3412C86.6834 84.5343 85.9715 84.971 85.7935 85.7433C85.6474 86.3777 85.903 87.1086 86.5511 87.9131C86.5921 87.9637 86.583 88.0326 86.5328 88.074C86.5145 88.0878 86.4872 88.097 86.4643 88.097Z" fill="#282A2F"/>
<path d="M88.1347 87.1362L85.8164 87.0581C85.7525 87.0581 85.7023 87.0029 85.7068 86.9386C85.7068 86.8742 85.7616 86.8236 85.8255 86.8282L88.1393 86.9064C88.2032 86.9064 88.2534 86.9615 88.2488 87.0259C88.2488 87.0857 88.1986 87.1362 88.1347 87.1362Z" fill="#282A2F"/>
<path d="M97.5224 98.4127C97.5224 98.4127 98.0929 95.5441 96.847 95.7602C95.5965 95.9808 86.8615 94.6799 86.0446 94.0731C85.2277 93.4663 83.7627 96.9922 84.5249 99.4102C85.287 101.828 91.3112 105.653 91.3112 105.653C91.3112 105.653 97.8784 105.566 98.1522 104.545C98.4214 103.525 97.5224 98.4127 97.5224 98.4127Z" fill="#F9F9F9"/>
<path d="M171.92 110.572H157.216C152.077 110.572 147.915 106.375 147.915 101.203C147.915 96.0268 152.082 91.8344 157.216 91.8344H171.92C177.059 91.8344 181.221 96.0314 181.221 101.203C181.221 106.379 177.059 110.572 171.92 110.572Z" fill="#F9F9F9"/>
<path d="M171.92 110.572L174.905 114.787C174.905 114.787 177.2 103.065 177.009 104.099C176.817 105.134 171.92 110.572 171.92 110.572Z" fill="#F9F9F9"/>
<path d="M26.9945 150.157C28.1564 150.157 29.0984 149.208 29.0984 148.037C29.0984 146.867 28.1564 145.918 26.9945 145.918C25.8326 145.918 24.8906 146.867 24.8906 148.037C24.8906 149.208 25.8326 150.157 26.9945 150.157Z" fill="#282A2F"/>
<path d="M141.923 150.078L125.726 137.317H54.1532C50.9997 137.317 48.4395 134.734 48.4395 131.562V74.9174C48.4395 71.7408 51.0043 69.1619 54.1532 69.1619H148.632C151.785 69.1619 154.345 71.7454 154.345 74.9174V131.557C154.345 134.734 151.781 137.313 148.632 137.313H142.58L141.923 150.078ZM54.1532 69.3918C51.1275 69.3918 48.6676 71.8696 48.6676 74.9174V131.557C48.6676 134.605 51.1275 137.083 54.1532 137.083H125.808L141.722 149.619L142.366 137.083H148.636C151.662 137.083 154.122 134.605 154.122 131.557V74.9174C154.122 71.8696 151.662 69.3918 148.636 69.3918H54.1532Z" fill="#282A2F"/>
<path d="M151.739 132.302H59.333C56.321 132.302 53.8566 129.819 53.8566 126.785V71.3823C53.8566 68.3483 56.321 65.8659 59.333 65.8659H151.735C154.747 65.8659 157.211 68.3483 157.211 71.3823V126.781C157.216 129.815 154.751 132.302 151.739 132.302Z" fill="#F55C47"/>
<path d="M114.883 120.883L145.081 144.672L146.66 113.845L114.883 120.883Z" fill="#F55C47"/>
<path d="M87.1033 92.0596C92.5123 92.0596 96.8971 87.6428 96.8971 82.1945C96.8971 76.7461 92.5123 72.3293 87.1033 72.3293C81.6944 72.3293 77.3096 76.7461 77.3096 82.1945C77.3096 87.6428 81.6944 92.0596 87.1033 92.0596Z" fill="#282A2F"/>
<path d="M116.307 117.545C116.307 117.545 116.736 107.345 109.68 97.4565C104.601 90.3403 81.134 88.6027 78.6696 89.6186C76.2143 90.6345 57.6855 132.67 57.6855 132.67H113.126L116.307 117.545Z" fill="#F9F9F9"/>
<path d="M134.379 87.6143C135.442 83.7207 136.962 77.2803 135.365 77.3768C134.174 77.4458 131.965 84.0838 131.111 86.7961C129.938 87.4902 128.492 89.067 127.643 90.9472C127.191 91.9493 126.999 95.2454 127.191 95.9257V95.9303C127.305 96.3441 127.305 96.7808 127.177 97.1899C126.675 98.8126 126.16 100.435 126.16 100.435C126.16 100.435 131.928 103.708 132.905 103.276C133.494 103.014 134.644 101.194 135.47 99.7826C137.482 98.2518 138.477 94.919 139.139 93.025C139.595 91.7287 136.565 89.1451 134.379 87.6143Z" fill="#F9F9F9"/>
<path d="M132.672 103.433C132.284 103.433 131.381 103.23 129.113 102.122C127.565 101.364 126.114 100.546 126.1 100.537C126.055 100.509 126.032 100.454 126.046 100.403C126.05 100.385 126.571 98.7621 127.063 97.1623C127.182 96.7762 127.187 96.3625 127.077 95.9671V95.9625C126.876 95.2362 127.077 91.9217 127.538 90.9058C128.433 88.9291 129.92 87.3891 131.016 86.7271C131.413 85.4629 132.193 83.0817 133.005 81.059C133.453 79.9465 133.863 79.0685 134.219 78.4479C134.662 77.6756 135.036 77.2895 135.36 77.2711C135.566 77.2573 135.734 77.3354 135.867 77.4963C136.72 78.5628 135.607 83.546 134.511 87.573C135.547 88.3039 139.819 91.4437 139.249 93.0664C139.189 93.2411 139.125 93.4296 139.057 93.6226C138.395 95.5442 137.4 98.4449 135.557 99.8608C134.315 101.985 133.439 103.166 132.951 103.382C132.905 103.4 132.832 103.433 132.672 103.433ZM126.297 100.38C128.428 101.585 131.659 103.203 132.663 103.203C132.745 103.203 132.809 103.194 132.859 103.171C133.293 102.978 134.183 101.755 135.369 99.7229C135.379 99.7091 135.388 99.6999 135.397 99.6907C137.195 98.3254 138.185 95.4476 138.838 93.5445C138.906 93.3468 138.97 93.1583 139.03 92.9836C139.413 91.8942 136.935 89.5497 134.311 87.7109C134.27 87.6833 134.251 87.6327 134.265 87.5868C135.78 82.029 136.3 78.4019 135.684 77.6388C135.602 77.5331 135.502 77.4871 135.369 77.4963C134.607 77.5423 133.019 81.1188 131.216 86.8375C131.207 86.865 131.189 86.888 131.166 86.9018C130.098 87.5362 128.624 89.0486 127.743 91.0023C127.31 91.9631 127.104 95.2178 127.296 95.8982V95.9027C127.419 96.3441 127.415 96.8038 127.282 97.2267C126.858 98.6104 126.411 100.017 126.297 100.38Z" fill="#282A2F"/>
<path d="M134.461 88.7498C134.393 88.8418 132.353 93.4434 131.203 92.5286C130.057 91.6138 131.988 88.2212 132.28 87.6052L134.461 88.7498Z" fill="#F9F9F9"/>
<path d="M131.536 92.7538C131.394 92.7538 131.262 92.7079 131.143 92.6113C130.057 91.7425 131.499 88.9199 132.043 87.8534C132.106 87.7247 132.161 87.6236 132.189 87.5592L132.376 87.6511C132.344 87.7201 132.289 87.8212 132.225 87.9546C131.755 88.8785 130.317 91.6873 131.271 92.4504C131.381 92.5378 131.504 92.5653 131.646 92.5332C132.084 92.432 132.896 91.7195 134.274 88.8969C134.356 88.7314 134.37 88.7039 134.384 88.6855L134.548 88.8142L134.553 88.8096C134.543 88.8234 134.507 88.9015 134.466 88.9889C133.316 91.3517 132.408 92.5745 131.696 92.74C131.636 92.7446 131.586 92.7538 131.536 92.7538Z" fill="#282A2F"/>
<path d="M136.05 90.1289C135.981 90.2208 133.941 94.8224 132.791 93.9076C131.646 92.9928 133.964 89.0946 134.256 88.4786L136.05 90.1289Z" fill="#F9F9F9"/>
<path d="M133.119 94.1329C132.978 94.1329 132.846 94.0869 132.727 93.9904C131.664 93.1445 133.27 90.1197 133.955 88.8326C134.051 88.6533 134.124 88.5154 134.16 88.4326L134.347 88.5246C134.306 88.6073 134.238 88.7452 134.137 88.9337C133.831 89.5083 133.261 90.584 132.905 91.5816C132.485 92.763 132.467 93.5169 132.855 93.8249C132.964 93.9122 133.088 93.9398 133.229 93.9077C133.667 93.8065 134.479 93.094 135.858 90.2714C135.94 90.1059 135.954 90.0783 135.967 90.0646L136.132 90.1933L136.136 90.1887C136.127 90.2025 136.09 90.2806 136.049 90.368C134.899 92.7308 133.991 93.9536 133.279 94.1191C133.224 94.1283 133.17 94.1329 133.119 94.1329Z" fill="#282A2F"/>
<path d="M136.186 89.9956C135.894 90.6116 132.919 94.5604 134.064 95.4752C135.21 96.39 137.085 93.1492 137.158 93.0572L139.03 92.6803L136.186 89.9956Z" fill="#F9F9F9"/>
<path d="M134.52 95.7373C134.329 95.7373 134.155 95.6775 134.005 95.5534C133.014 94.7627 134.735 92.0873 135.661 90.653C135.871 90.3266 136.04 90.0646 136.095 89.9496L136.282 90.0416C136.223 90.1703 136.058 90.4231 135.835 90.7725C135.406 91.4391 134.753 92.4504 134.329 93.3744C133.845 94.4317 133.777 95.1121 134.133 95.3925C134.283 95.512 134.452 95.5534 134.644 95.5212C135.26 95.4155 136.1 94.5513 137.021 93.0802C137.058 93.0204 137.072 93.0021 137.081 92.9929L137.104 92.9607L139.011 92.5745L139.052 92.7814L137.227 93.1492C137.218 93.1584 137.209 93.1767 137.199 93.1905C136.236 94.7305 135.365 95.6086 134.68 95.7235C134.625 95.7327 134.571 95.7373 134.52 95.7373Z" fill="#282A2F"/>
<path d="M127.41 93.5491C127.41 93.5491 126.872 91.9953 128.346 89.4486C129.82 86.9018 131.527 85.8813 131.969 86.2674C132.412 86.6536 132.613 87.6235 131.335 90.276L130.851 91.9723L127.41 93.5491Z" fill="#F9F9F9"/>
<path d="M127.223 93.7054C127.159 93.7284 127.091 93.687 127.086 93.618C127.032 93.1721 126.986 91.5907 128.255 89.3934C129.464 87.3063 130.824 86.2214 131.582 86.0927C131.828 86.0514 131.965 86.1203 132.038 86.1847C132.691 86.7593 132.494 88.1062 131.431 90.3128L130.97 92.0642C130.956 92.1194 130.897 92.1562 130.842 92.1378C130.787 92.124 130.756 92.0642 130.769 92.0091L131.239 90.2392L131.244 90.23C132.248 88.1476 132.471 86.842 131.906 86.3456C131.833 86.2812 131.709 86.2858 131.618 86.2996C131.025 86.3961 129.692 87.3293 128.437 89.4945C127.191 91.6505 127.255 93.2227 127.296 93.5859C127.301 93.641 127.273 93.687 127.223 93.7054Z" fill="#282A2F"/>
<path d="M125.84 97.4611C125.84 97.4611 130.742 101.571 134.667 102.591C135.506 102.807 135.958 103.731 135.616 104.536C133.466 109.643 126.826 124.698 121.213 129.792C114.02 136.32 102.346 129.194 106.349 123.719C108.644 120.579 118.041 106.922 121.797 101.208C122.883 99.5574 124.042 98.2472 125.84 97.4611Z" fill="#F9F9F9"/>
<path d="M115.02 111.114L114.833 110.986L121.92 100.628C122.86 99.1712 124.202 98.0358 125.795 97.3554L125.886 97.5669C124.334 98.2288 123.029 99.3321 122.112 100.757L115.02 111.114Z" fill="#282A2F"/>
<path d="M135.219 105.584C132.22 105.533 129.254 103.814 127.296 102.385C125.179 100.835 123.746 99.2816 123.732 99.2632L123.901 99.1069C123.914 99.1207 125.334 100.665 127.438 102.201C129.368 103.612 132.289 105.304 135.228 105.354L135.219 105.584Z" fill="#282A2F"/>
<path d="M134.667 102.702C134.662 102.702 134.653 102.702 134.648 102.702C131.504 102.196 126.041 97.8381 125.813 97.6542C125.763 97.6128 125.754 97.5439 125.795 97.4933C125.836 97.4427 125.904 97.4335 125.954 97.4749C126.009 97.5209 131.6 101.975 134.685 102.476C134.749 102.486 134.79 102.545 134.781 102.61C134.772 102.665 134.721 102.702 134.667 102.702Z" fill="#282A2F"/>
<path d="M107.179 131.902C107.12 131.902 107.07 131.856 107.065 131.796C106.65 125.14 105.605 108.356 105.491 107.942C105.472 107.882 105.509 107.818 105.568 107.8C105.628 107.781 105.691 107.818 105.71 107.878C105.856 108.397 107.243 130.992 107.293 131.778C107.298 131.842 107.248 131.897 107.188 131.902C107.184 131.902 107.179 131.902 107.179 131.902Z" fill="#282A2F"/>
<path d="M115.143 132.293C115.033 132.293 114.919 132.293 114.81 132.288L107.179 132.017C107.115 132.017 107.065 131.962 107.07 131.897C107.074 131.833 107.125 131.787 107.188 131.787L114.819 132.058C117.799 132.164 120.661 130.808 122.477 128.422L123.636 126.9C123.673 126.85 123.746 126.841 123.796 126.877C123.846 126.914 123.855 126.988 123.819 127.038L122.659 128.56C120.866 130.913 118.077 132.293 115.143 132.293Z" fill="#282A2F"/>
<path d="M88.9152 92.6343C88.9791 92.3033 89.7138 81.7899 89.8827 80.705C90.0515 79.6155 99.43 85.0216 99.43 85.0216C99.43 85.0216 99.4802 91.8758 99.2703 93.7513C98.2525 102.702 88.9152 92.6343 88.9152 92.6343Z" fill="#F9F9F9"/>
<path d="M92.2056 82.7875C92.2056 82.7875 92.5342 89.0394 99.4254 91.0299L99.4573 85.6606L92.2056 82.7875Z" fill="#282A2F"/>
<path d="M100.963 65.659C100.963 65.659 102.903 65.9164 104.331 71.3179C105.76 76.7194 107.636 85.5594 104.336 87.9039C101.265 90.0829 90.0698 86.2904 90.0698 86.2904L87.2266 67.3783C87.2266 67.3783 91.9181 62.8319 100.963 65.659Z" fill="#F9F9F9"/>
<path d="M98.7601 76.8542C98.466 76.8765 98.2556 77.2682 98.2902 77.729C98.3247 78.1897 98.5911 78.5452 98.8851 78.5228C99.1792 78.5004 99.3896 78.1088 99.3551 77.648C99.3205 77.1872 99.0542 76.8318 98.7601 76.8542Z" fill="#282A2F"/>
<path d="M104.114 75.7131C103.82 75.7355 103.61 76.1271 103.644 76.5879C103.679 77.0487 103.945 77.4041 104.239 77.3817C104.533 77.3594 104.744 76.9677 104.709 76.5069C104.675 76.0462 104.408 75.6908 104.114 75.7131Z" fill="#282A2F"/>
<path d="M102.104 81.0774C102.05 81.0774 102.004 81.0406 101.995 80.9854C101.981 80.9211 102.022 80.8613 102.081 80.8475C103.241 80.6085 103.496 79.5282 103.542 79.2661L101.945 77.7721C101.926 77.7537 101.917 77.7353 101.913 77.7124L101.456 75.538C101.443 75.4736 101.484 75.4139 101.543 75.4001C101.607 75.3863 101.666 75.4276 101.68 75.4874L102.132 77.625L103.747 79.1374C103.775 79.1604 103.788 79.1972 103.784 79.234C103.784 79.2478 103.592 80.7694 102.132 81.0728C102.123 81.0774 102.113 81.0774 102.104 81.0774Z" fill="#282A2F"/>
<path d="M101.872 82.9116C101.201 82.9116 100.229 82.815 99.5075 82.3415C99.4528 82.3048 99.4391 82.2358 99.4756 82.1806C99.5121 82.1255 99.5805 82.1117 99.6353 82.1485C100.753 82.884 102.602 82.6403 102.62 82.6403C102.684 82.6311 102.739 82.6771 102.748 82.7369C102.757 82.7966 102.711 82.8564 102.652 82.8656C102.615 82.8748 102.305 82.9116 101.872 82.9116Z" fill="#282A2F"/>
<path d="M95.0078 75.7219C94.9667 75.7219 94.9256 75.6989 94.9074 75.6575C94.88 75.6024 94.9028 75.5334 94.9576 75.5058C97.1755 74.4071 98.8185 74.5726 98.8869 74.5818C98.9508 74.591 98.9965 74.6462 98.9873 74.7105C98.9782 74.7749 98.9234 74.8209 98.8595 74.8117C98.8413 74.8117 97.212 74.6462 95.058 75.7127C95.0443 75.7173 95.026 75.7219 95.0078 75.7219Z" fill="#282A2F"/>
<path d="M102.588 73.7543C102.542 73.7543 102.501 73.7268 102.483 73.6854C102.46 73.6256 102.488 73.5613 102.547 73.5337C102.602 73.5107 103.953 72.9545 104.665 73.2027C104.724 73.2211 104.756 73.29 104.738 73.3498C104.719 73.4096 104.651 73.4417 104.592 73.4234C103.962 73.2073 102.647 73.7451 102.638 73.7497C102.615 73.7497 102.602 73.7543 102.588 73.7543Z" fill="#282A2F"/>
<path d="M84.7896 82.5208C84.8991 81.5647 83.6943 78.7375 84.2009 72.7706C84.7941 65.7785 89.1434 64.5511 91.2564 63.8754C94.0722 62.979 98.2206 62.5698 99.4118 63.7467C105.062 69.3366 90.444 78.1813 90.444 78.1813C90.444 78.1813 91.0282 80.659 91.1971 82.1577L84.7896 82.5208Z" fill="#282A2F"/>
<path d="M98.2846 80.3832C97.6958 80.3832 97.1071 80.1672 96.6462 79.735C95.6787 78.8248 95.6285 77.2894 96.5321 76.3149C97.4357 75.3403 98.96 75.2897 99.9275 76.1999C100.895 77.1102 100.945 78.6456 100.042 79.6201C99.567 80.1258 98.9281 80.3832 98.2846 80.3832ZM98.2846 75.777C97.705 75.777 97.1254 76.0115 96.6964 76.4712C95.8795 77.3538 95.9251 78.7421 96.8014 79.565C97.6776 80.3878 99.0558 80.3418 99.8727 79.4592C100.69 78.5766 100.644 77.1883 99.7678 76.3654C99.3525 75.9701 98.8185 75.777 98.2846 75.777Z" fill="#282A2F"/>
<path d="M104.391 78.5628C103.802 78.5628 103.213 78.3468 102.752 77.9147C102.282 77.4733 102.013 76.8757 101.99 76.2276C101.967 75.584 102.196 74.968 102.634 74.4945C103.072 74.021 103.665 73.7498 104.309 73.7268C104.948 73.7038 105.559 73.9337 106.029 74.375C106.997 75.2852 107.047 76.8206 106.143 77.7951C105.673 78.3054 105.034 78.5628 104.391 78.5628ZM104.395 73.952C104.368 73.952 104.345 73.952 104.318 73.952C103.738 73.9704 103.2 74.2187 102.803 74.6462C102.406 75.0737 102.2 75.6299 102.218 76.2138C102.237 76.7976 102.483 77.34 102.908 77.74C103.784 78.5628 105.162 78.5169 105.979 77.6342C106.796 76.7516 106.75 75.3633 105.874 74.5405C105.468 74.1635 104.948 73.952 104.395 73.952Z" fill="#282A2F"/>
<path d="M92.0048 77.8273C92.0048 77.8273 89.1068 76.3149 87.8838 78.8295C86.1632 82.36 90.4531 84.709 92.4475 83.546C94.4418 82.3829 92.0048 77.8273 92.0048 77.8273Z" fill="#F9F9F9"/>
<path d="M89.2803 82.2726C89.2483 82.2726 89.2164 82.2588 89.1936 82.2312C88.4999 81.3716 88.2306 80.5763 88.3903 79.8638C88.5866 78.9995 89.367 78.5168 89.8142 78.3054C90.549 77.9606 91.3203 78.3422 91.3568 78.3605C91.4115 78.3881 91.4343 78.4571 91.407 78.5168C91.3796 78.572 91.3111 78.595 91.2518 78.5674C91.2427 78.5628 90.5444 78.218 89.9101 78.5168C89.4993 78.7099 88.7874 79.1466 88.6094 79.9189C88.4634 80.5533 88.7189 81.2842 89.367 82.0887C89.408 82.1393 89.3989 82.2082 89.3487 82.2496C89.3305 82.2634 89.3076 82.2726 89.2803 82.2726Z" fill="#282A2F"/>
<path d="M90.9552 81.3118C90.9506 81.3118 90.9506 81.3118 90.9552 81.3118L88.6368 81.2337C88.5729 81.2337 88.5227 81.1785 88.5273 81.1142C88.5273 81.0498 88.582 80.9992 88.6459 81.0038L90.9597 81.082C91.0236 81.082 91.0738 81.1371 91.0693 81.2015C91.0647 81.2659 91.0145 81.3118 90.9552 81.3118Z" fill="#282A2F"/>
<path d="M99.2155 67.8426L104.605 72.1316C104.605 72.1316 103.09 64.8407 99.6171 63.6133C96.1486 62.3859 92.3699 65.921 92.3699 65.921L99.2155 67.8426Z" fill="#282A2F"/>
<path d="M150.288 57.8073L153.004 63.3467C153.286 63.9259 153.839 64.3305 154.478 64.4224L160.547 65.3096C162.149 65.5441 162.793 67.53 161.629 68.67L157.234 72.982C156.773 73.4325 156.563 74.0853 156.673 74.7243L157.709 80.8153C157.983 82.4243 156.308 83.6517 154.87 82.8932L149.439 80.0155C148.869 79.7121 148.189 79.7121 147.618 80.0155L142.187 82.8932C140.754 83.6517 139.075 82.4243 139.349 80.8153L140.385 74.7243C140.494 74.0853 140.284 73.4325 139.823 72.982L135.429 68.67C134.269 67.53 134.908 65.5441 136.51 65.3096L142.58 64.4224C143.219 64.3305 143.767 63.9259 144.054 63.3467L146.769 57.8073C147.495 56.3455 149.567 56.3455 150.288 57.8073Z" fill="#F9F9F9"/>
<path d="M100.338 92.5883C100.338 92.5883 100.909 89.7197 99.6628 89.9358C98.4169 90.1518 89.6773 88.8555 88.8604 88.2487C88.0435 87.6419 86.5785 91.1678 87.3407 93.5858C88.1028 96.0084 94.1269 99.8285 94.1269 99.8285C94.1269 99.8285 100.694 99.7412 100.968 98.7207C101.237 97.7047 100.338 92.5883 100.338 92.5883Z" fill="#F9F9F9"/>
<path d="M99.2475 90.0783C98.2161 90.0783 96.0346 89.8163 94.0813 89.5175C91.8223 89.1727 89.2483 88.6808 88.792 88.3406C88.7418 88.3039 88.7326 88.2303 88.7692 88.1798C88.8057 88.1292 88.8787 88.12 88.9289 88.1568C89.2712 88.4142 91.3568 88.8693 94.1178 89.2922C96.815 89.706 99.0877 89.9266 99.6445 89.8255C99.7084 89.8163 99.7677 89.8577 99.7769 89.9174C99.786 89.9818 99.7449 90.0415 99.6856 90.0507C99.5806 90.0691 99.4346 90.0783 99.2475 90.0783Z" fill="#282A2F"/>
<path d="M98.3894 95.0063C97.5543 95.0063 96.5639 94.9281 95.6786 94.8224C93.7162 94.5833 91.1787 94.0731 89.9237 93.3468L90.0378 93.1491C91.2609 93.857 93.7664 94.3581 95.706 94.5925C98.2616 94.9051 99.8453 94.7856 100.083 94.5144C100.603 93.9214 100.361 91.3241 100.224 90.3771L100.448 90.3449C100.47 90.4874 100.95 93.8708 100.251 94.6707C100.041 94.9143 99.3067 95.0063 98.3894 95.0063Z" fill="#282A2F"/>
<path d="M155.783 83.2426C155.454 83.2426 155.126 83.1644 154.82 82.9989L149.389 80.1212C148.851 79.8362 148.212 79.8362 147.678 80.1212L142.247 82.9989C141.544 83.3713 140.709 83.3115 140.065 82.8381C139.422 82.3692 139.107 81.5877 139.244 80.8016L140.28 74.7105C140.38 74.1083 140.184 73.4969 139.75 73.0694L135.356 68.7574C134.785 68.2012 134.589 67.3829 134.831 66.6198C135.077 65.8613 135.716 65.3143 136.501 65.1993L142.571 64.3121C143.169 64.2248 143.689 63.8432 143.958 63.2962L146.674 57.7568C147.025 57.0397 147.737 56.5938 148.531 56.5938C149.325 56.5938 150.037 57.0397 150.389 57.7568L153.104 63.2962C153.373 63.8432 153.889 64.2248 154.491 64.3121L160.561 65.1993C161.346 65.3143 161.985 65.8567 162.231 66.6198C162.478 67.3783 162.277 68.1966 161.707 68.7574L157.312 73.0694C156.878 73.4969 156.682 74.1083 156.782 74.7105L157.818 80.8016C157.951 81.5877 157.636 82.3692 156.997 82.8381C156.636 83.1047 156.212 83.2426 155.783 83.2426ZM148.531 79.6799C148.86 79.6799 149.193 79.7581 149.494 79.919L154.925 82.7967C155.559 83.1323 156.285 83.0817 156.864 82.6542C157.444 82.2312 157.718 81.5509 157.595 80.8384L156.559 74.7473C156.445 74.0716 156.668 73.382 157.152 72.9039L161.547 68.5919C162.058 68.0863 162.236 67.3783 162.012 66.6888C161.789 66.0038 161.237 65.5303 160.525 65.4246L154.455 64.5374C153.779 64.4408 153.2 64.0133 152.899 63.3973L150.183 57.8579C149.868 57.2097 149.248 56.8236 148.531 56.8236C147.815 56.8236 147.198 57.2097 146.879 57.8579L144.164 63.3973C143.862 64.0133 143.278 64.4408 142.607 64.5374L136.538 65.4246C135.83 65.5303 135.273 65.9992 135.05 66.6888C134.826 67.3737 135.004 68.0863 135.515 68.5919L139.91 72.9039C140.399 73.382 140.622 74.0716 140.504 74.7473L139.468 80.8384C139.344 81.5509 139.618 82.2267 140.202 82.6542C140.782 83.0771 141.508 83.1323 142.142 82.7967L147.573 79.919C147.869 79.7627 148.203 79.6799 148.531 79.6799Z" fill="#282A2F"/>
<path d="M62.0211 31.2688L63.5819 34.4545C63.7462 34.7901 64.0611 35.02 64.4307 35.0751L67.922 35.5854C68.8439 35.7187 69.2135 36.8634 68.5472 37.5161L66.0189 39.9985C65.7542 40.2606 65.631 40.6329 65.6949 41.0007L66.2927 44.5036C66.4525 45.4276 65.4849 46.1355 64.6589 45.6988L61.5373 44.0439C61.2087 43.8692 60.8163 43.8692 60.4922 44.0439L57.3706 45.6988C56.5446 46.1355 55.5817 45.4322 55.7368 44.5036L56.3347 41.0007C56.3986 40.6329 56.2753 40.2606 56.0106 39.9985L53.4823 37.5161C52.816 36.8588 53.1811 35.7187 54.1076 35.5854L57.5943 35.0751C57.9594 35.02 58.2788 34.7901 58.4431 34.4545L60.0039 31.2688C60.4146 30.4276 61.6058 30.4276 62.0211 31.2688Z" fill="#282A2F"/>
<path d="M84.2829 31.2688L85.8437 34.4545C86.008 34.7901 86.3229 35.02 86.6926 35.0751L90.1838 35.5854C91.1057 35.7187 91.4754 36.8634 90.8091 37.5161L88.2807 39.9985C88.016 40.2606 87.8928 40.6329 87.9567 41.0007L88.5546 44.5036C88.7143 45.4276 87.7468 46.1355 86.9208 45.6988L83.7992 44.0439C83.4706 43.8692 83.0781 43.8692 82.7541 44.0439L79.6325 45.6988C78.8064 46.1355 77.8435 45.4322 77.9987 44.5036L78.5965 41.0007C78.6604 40.6329 78.5372 40.2606 78.2725 39.9985L75.7442 37.5161C75.0779 36.8588 75.443 35.7187 76.3694 35.5854L79.8607 35.0751C80.2258 35.02 80.5452 34.7901 80.7095 34.4545L82.2703 31.2688C82.6765 30.4276 83.8676 30.4276 84.2829 31.2688Z" fill="#282A2F"/>
<path d="M106.545 31.2688L108.106 34.4545C108.27 34.7901 108.585 35.02 108.954 35.0751L112.446 35.5854C113.368 35.7187 113.737 36.8634 113.071 37.5161L110.543 39.9985C110.278 40.2606 110.155 40.6329 110.219 41.0007L110.816 44.5036C110.976 45.4276 110.009 46.1355 109.183 45.6988L106.061 44.0439C105.732 43.8692 105.34 43.8692 105.016 44.0439L101.894 45.6988C101.068 46.1355 100.105 45.4322 100.26 44.5036L100.858 41.0007C100.922 40.6329 100.799 40.2606 100.534 39.9985L98.006 37.5161C97.3397 36.8588 97.7048 35.7187 98.6312 35.5854L102.123 35.0751C102.488 35.02 102.807 34.7901 102.971 34.4545L104.532 31.2688C104.943 30.4276 106.134 30.4276 106.545 31.2688Z" fill="#282A2F"/>
<path d="M128.807 31.2688L130.368 34.4545C130.532 34.7901 130.847 35.02 131.216 35.0751L134.708 35.5854C135.629 35.7187 135.999 36.8634 135.333 37.5161L132.805 39.9985C132.54 40.2606 132.417 40.6329 132.481 41.0007L133.078 44.5036C133.238 45.4276 132.271 46.1355 131.445 45.6988L128.323 44.0439C127.994 43.8692 127.602 43.8692 127.278 44.0439L124.156 45.6988C123.33 46.1355 122.367 45.4322 122.522 44.5036L123.12 41.0007C123.184 40.6329 123.061 40.2606 122.796 39.9985L120.268 37.5161C119.602 36.8588 119.967 35.7187 120.893 35.5854L124.384 35.0751C124.75 35.02 125.069 34.7901 125.233 34.4545L126.794 31.2688C127.205 30.4276 128.396 30.4276 128.807 31.2688Z" fill="#282A2F"/>
<path d="M151.073 31.2688L152.634 34.4545C152.798 34.7901 153.113 35.02 153.483 35.0751L156.974 35.5854C157.896 35.7187 158.266 36.8634 157.599 37.5161L155.071 39.9985C154.806 40.2606 154.683 40.6329 154.747 41.0007L155.345 44.5036C155.504 45.4276 154.537 46.1355 153.711 45.6988L150.589 44.0439C150.261 43.8692 149.868 43.8692 149.544 44.0439L146.423 45.6988C145.597 46.1355 144.634 45.4322 144.789 44.5036L145.387 41.0007C145.451 40.6329 145.327 40.2606 145.063 39.9985L142.534 37.5161C141.868 36.8588 142.233 35.7187 143.16 35.5854L146.651 35.0751C147.016 35.02 147.335 34.7901 147.5 34.4545L149.06 31.2688C149.467 30.4276 150.658 30.4276 151.073 31.2688Z" fill="#F9F9F9"/>
<path d="M154.236 45.9425C154.039 45.9425 153.843 45.8965 153.656 45.8L150.535 44.145C150.238 43.9887 149.886 43.9887 149.594 44.145L146.473 45.8C146.053 46.0206 145.551 45.9884 145.168 45.7034C144.784 45.423 144.593 44.9541 144.675 44.4852L145.273 40.9823C145.327 40.6513 145.222 40.3157 144.98 40.0813L142.452 37.5989C142.11 37.2633 141.991 36.776 142.137 36.3209C142.283 35.8658 142.667 35.5394 143.137 35.4705L146.628 34.9602C146.957 34.9142 147.24 34.7028 147.39 34.404L148.951 31.2183C149.161 30.7907 149.585 30.5241 150.06 30.5241C150.535 30.5241 150.959 30.7907 151.169 31.2183L152.73 34.404C152.876 34.7028 153.163 34.9142 153.492 34.9602L156.983 35.4705C157.453 35.5394 157.836 35.8658 157.983 36.3209C158.129 36.776 158.01 37.2679 157.668 37.5989L155.139 40.0813C154.902 40.3157 154.792 40.6513 154.847 40.9823L155.445 44.4852C155.527 44.9587 155.336 45.423 154.952 45.7034C154.742 45.8643 154.491 45.9425 154.236 45.9425ZM150.064 43.8003C150.261 43.8003 150.461 43.8462 150.639 43.9428L153.761 45.5977C154.108 45.7816 154.505 45.754 154.824 45.5195C155.144 45.2851 155.294 44.9127 155.226 44.522L154.628 41.0191C154.56 40.6145 154.692 40.2008 154.984 39.9158L157.512 37.4334C157.795 37.1576 157.891 36.7668 157.768 36.3899C157.645 36.0129 157.344 35.7555 156.951 35.6957L153.46 35.1855C153.058 35.1257 152.707 34.8729 152.529 34.5051L150.968 31.3194C150.795 30.9654 150.457 30.754 150.06 30.754C149.667 30.754 149.33 30.9654 149.152 31.3194L147.591 34.5051C147.408 34.8729 147.062 35.1303 146.66 35.1855L143.169 35.6957C142.781 35.7509 142.475 36.0129 142.352 36.3899C142.229 36.7668 142.324 37.1576 142.607 37.4334L145.136 39.9158C145.428 40.2008 145.56 40.6145 145.492 41.0191L144.894 44.522C144.825 44.9127 144.976 45.2851 145.295 45.5195C145.615 45.754 146.012 45.7816 146.359 45.5977L149.48 43.9428C149.667 43.8462 149.864 43.8003 150.064 43.8003Z" fill="#282A2F"/>
<path d="M84.0274 132.017C83.9635 132.017 83.9133 131.966 83.9133 131.902C83.9133 131.837 83.9635 131.787 84.0274 131.787H107.184C107.248 131.787 107.298 131.837 107.298 131.902C107.298 131.966 107.248 132.017 107.184 132.017H84.0274Z" fill="#282A2F"/>
<path d="M99.7769 132.578C99.7586 132.991 98.4397 133.157 96.5367 131.736C96.5595 131.792 96.5777 131.847 96.6005 131.897C97.5863 134.605 97.7232 137.395 96.3997 136.83C95.6787 136.522 95.5691 136.214 95.5691 136.214C95.5691 136.214 95.5463 137.625 94.6108 137.336C93.6752 137.046 93.1732 136.264 93.1732 136.264C93.1732 136.264 92.7624 137.929 91.8634 137.124C90.9689 136.32 88.8833 132.725 87.7789 132.109C87.4001 131.897 86.6699 131.86 85.8028 131.842C84.1324 131.81 81.9601 131.851 80.8465 130.886C79.6372 129.838 79.5824 119.343 79.5824 119.343C79.5824 119.343 82.3069 120.763 84.032 122.046C84.032 122.046 91.229 123.512 93.1686 124.648C95.3227 125.903 99.8043 131.989 99.7769 132.578Z" fill="#F9F9F9"/>
<path d="M94.848 137.487C94.7613 137.487 94.67 137.473 94.5742 137.441C93.8851 137.23 93.4241 136.765 93.2096 136.508C93.1047 136.807 92.8765 137.313 92.4931 137.432C92.265 137.506 92.0231 137.427 91.7812 137.211C91.4024 136.871 90.8228 136.053 90.2022 135.184C89.3305 133.957 88.3401 132.564 87.7195 132.214C87.3544 132.012 86.5694 131.98 85.7982 131.962C85.6704 131.957 85.5426 131.957 85.4102 131.957C83.8129 131.929 81.8277 131.897 80.7689 130.978C80.2441 130.523 79.8653 128.422 79.6462 124.735C79.4819 122.009 79.4683 119.375 79.4683 119.347C79.4683 119.306 79.4865 119.269 79.523 119.251C79.555 119.228 79.6006 119.228 79.6371 119.246C79.6645 119.26 82.3708 120.671 84.0822 121.945C84.6207 122.055 91.3294 123.443 93.2279 124.556C94.5651 125.337 96.5777 127.788 97.3809 128.803C98.6131 130.357 99.9092 132.219 99.8909 132.596C99.8864 132.725 99.7997 132.835 99.6536 132.909C99.1744 133.138 98.0883 132.955 96.7739 132.058C97.4357 133.966 97.7779 136.241 97.1253 136.867C96.9884 136.995 96.7465 137.115 96.3541 136.949C96.0027 136.798 95.7882 136.646 95.6558 136.522C95.6147 136.793 95.5052 137.179 95.2359 137.377C95.1219 137.446 94.9941 137.487 94.848 137.487ZM93.1686 136.145C93.2051 136.145 93.2416 136.163 93.2644 136.195C93.269 136.205 93.7573 136.949 94.6427 137.221C94.8298 137.28 94.9804 137.262 95.099 137.175C95.4367 136.926 95.4504 136.214 95.4504 136.209C95.4504 136.154 95.4915 136.108 95.5463 136.099C95.601 136.09 95.6558 136.122 95.6741 136.172C95.6741 136.172 95.7927 136.444 96.4408 136.724C96.669 136.821 96.8378 136.811 96.9656 136.687C97.4767 136.2 97.2622 134.067 96.491 131.939C96.4727 131.883 96.4499 131.833 96.4316 131.778C96.4134 131.732 96.4271 131.677 96.4682 131.644C96.5092 131.612 96.564 131.612 96.6051 131.644C98.0746 132.743 99.1699 132.872 99.5532 132.688C99.5943 132.67 99.6582 132.628 99.6628 132.573L99.7769 132.578L99.6628 132.573C99.6719 132.362 98.7363 130.872 97.1983 128.928C96.4043 127.921 94.4145 125.503 93.1138 124.744C91.2107 123.632 84.0822 122.17 84.0092 122.156C83.9909 122.152 83.9772 122.147 83.9635 122.138C82.5077 121.058 80.3126 119.862 79.6964 119.536C79.7193 122.575 79.9794 129.989 80.9195 130.803C81.919 131.667 83.8586 131.7 85.4194 131.727C85.5517 131.727 85.6795 131.732 85.8073 131.736C86.6424 131.755 87.4274 131.787 87.8381 132.017C88.509 132.394 89.513 133.805 90.3984 135.055C91.0054 135.915 91.5804 136.724 91.9409 137.046C92.1189 137.207 92.2878 137.267 92.4338 137.221C92.7761 137.115 93.0043 136.48 93.0636 136.241C93.0727 136.195 93.1092 136.163 93.1549 136.154C93.1594 136.145 93.164 136.145 93.1686 136.145Z" fill="#282A2F"/>
<path d="M95.6376 136.264C95.5828 136.264 95.5326 136.223 95.5235 136.163C95.5189 136.131 95.0808 132.904 93.7345 131.341C92.3699 129.76 91.5621 128.969 91.553 128.964C91.5074 128.918 91.5074 128.849 91.5484 128.803C91.5941 128.757 91.6625 128.757 91.7082 128.799C91.7173 128.808 92.5297 129.599 93.9033 131.189C95.2953 132.803 95.7288 135.998 95.7471 136.131C95.7562 136.195 95.7106 136.251 95.6467 136.26C95.6467 136.264 95.6421 136.264 95.6376 136.264Z" fill="#282A2F"/>
<path d="M93.1686 136.375C93.1139 136.375 93.0637 136.333 93.0545 136.278C93.05 136.251 92.5845 133.433 91.8497 132.421C91.1058 131.401 89.7367 130.357 89.723 130.343C89.6728 130.307 89.6637 130.233 89.7002 130.183C89.7367 130.132 89.8097 130.123 89.8599 130.16C89.9192 130.201 91.2655 131.235 92.0322 132.283C92.8035 133.341 93.2599 136.122 93.2782 136.241C93.2873 136.306 93.2462 136.361 93.1823 136.375C93.1823 136.375 93.1777 136.375 93.1686 136.375Z" fill="#282A2F"/>
<path d="M97.3352 135.106C97.2805 135.106 97.2303 135.065 97.2211 135.009C97.2166 134.982 96.8104 132.389 96.1487 131.226C95.5371 130.15 93.4378 127.916 93.1548 127.806C93.0955 127.801 93.0544 127.751 93.0544 127.691C93.0544 127.627 93.1092 127.576 93.1685 127.576C93.2187 127.576 93.3009 127.581 93.7436 128.004C93.9991 128.247 94.3232 128.587 94.6563 128.951C95.4413 129.819 96.0756 130.628 96.3495 131.107C97.0294 132.306 97.4311 134.862 97.4493 134.968C97.4584 135.032 97.4174 135.088 97.3535 135.101C97.3489 135.106 97.3444 135.106 97.3352 135.106Z" fill="#282A2F"/>
<path d="M85.8028 131.838C84.1324 131.805 81.9601 131.847 80.8465 130.881C79.6372 129.833 79.5824 119.338 79.5824 119.338C79.5824 119.338 82.3069 120.759 84.032 122.041C84.032 122.041 84.1781 130.84 85.8028 131.838Z" fill="#282A2F"/>
<path d="M83.7947 121.605C83.2881 120.281 79.5687 119.251 75.5024 118.502C76.0181 117.734 76.5064 116.962 76.9719 116.189C82.2932 107.331 89.5678 95.0844 82.0741 89.9404C82.0741 89.9404 71.7875 85.2652 59.9948 105.253C49.6762 122.74 50.2284 129.419 54.5868 131.769C55.5315 132.279 56.5903 132.527 57.6582 132.536L84.0274 132.683C82.2202 125.149 83.7947 121.605 83.7947 121.605Z" fill="#F9F9F9"/>
<path d="M75.5571 118.534C75.5343 118.534 75.5115 118.529 75.4932 118.515C75.443 118.479 75.4293 118.41 75.4613 118.354C75.9587 117.614 76.3923 116.929 76.8715 116.134C77.8755 114.461 79.126 112.378 80.2897 110.268C80.3217 110.213 80.3901 110.195 80.4449 110.222C80.4996 110.255 80.5179 110.324 80.4905 110.379C79.3268 112.493 78.0717 114.576 77.0677 116.254C76.584 117.058 76.1504 117.743 75.653 118.488C75.6301 118.515 75.5936 118.534 75.5571 118.534Z" fill="#282A2F"/>
<path d="M82.6629 132.784H82.6583L57.6536 132.647C56.531 132.642 55.4357 132.362 54.4864 131.842C50.7533 129.792 50.5479 124.905 53.8612 116.911C53.884 116.851 53.9525 116.824 54.0118 116.851C54.0711 116.874 54.0985 116.943 54.0711 117.003C50.808 124.868 50.9815 129.654 54.5959 131.64C55.5087 132.141 56.5675 132.412 57.6536 132.417L82.6583 132.555C82.955 132.555 83.2333 132.426 83.4205 132.196C83.6076 131.966 83.6852 131.663 83.6258 131.369C82.9367 127.935 82.9915 125.457 83.1558 123.981C83.3383 122.372 83.676 121.591 83.6943 121.554C83.7217 121.494 83.7855 121.471 83.8449 121.494C83.9042 121.522 83.927 121.586 83.9042 121.646C83.8996 121.655 83.5619 122.441 83.3839 124.018C83.2196 125.475 83.1694 127.925 83.854 131.323C83.927 131.686 83.8358 132.054 83.603 132.339C83.3657 132.624 83.028 132.784 82.6629 132.784Z" fill="#282A2F"/>
<path d="M83.7947 121.72C83.7536 121.72 83.7125 121.697 83.6897 121.655C83.6851 121.646 83.393 121.085 82.0285 120.4C80.7643 119.761 78.2908 118.883 73.6951 118.313L64.6863 117.191C64.6224 117.182 64.5814 117.127 64.5859 117.063C64.595 116.998 64.6498 116.952 64.7137 116.962L73.7225 118.083C82.6902 119.2 83.8449 121.462 83.8905 121.559C83.9179 121.614 83.8951 121.683 83.8357 121.71C83.8266 121.715 83.8083 121.72 83.7947 121.72Z" fill="#282A2F"/>
<path d="M81.134 131.355C79.8744 127.447 80.171 124.634 80.6411 122.961C81.1568 121.136 81.96 120.253 81.9965 120.216L82.1654 120.373L82.0833 120.294L82.1654 120.373C82.1563 120.382 81.3576 121.26 80.8602 123.039C80.3992 124.68 80.1117 127.443 81.3531 131.286L81.134 131.355Z" fill="#282A2F"/>
<path d="M179.797 125.149C180.959 125.149 181.901 124.2 181.901 123.03C181.901 121.859 180.959 120.91 179.797 120.91C178.635 120.91 177.693 121.859 177.693 123.03C177.693 124.2 178.635 125.149 179.797 125.149Z" fill="#282A2F"/>
<path d="M38.7324 27.5866C39.8944 27.5866 40.8363 26.6378 40.8363 25.4674C40.8363 24.297 39.8944 23.3482 38.7324 23.3482C37.5705 23.3482 36.6285 24.297 36.6285 25.4674C36.6285 26.6378 37.5705 27.5866 38.7324 27.5866Z" fill="#282A2F"/>
<path d="M181.025 66.3274L181.465 64.9442L174.36 62.648L173.92 64.0313L181.025 66.3274Z" fill="#282A2F"/>
<path d="M179.518 61.1263L178.145 60.6825L175.866 67.8393L177.239 68.2831L179.518 61.1263Z" fill="#282A2F"/>
<path d="M33.1144 72.0764C33.0779 72.0764 33.0414 72.0581 33.0231 72.0305L29.4087 66.9232H11.4869C8.42008 66.9232 5.5358 65.7188 3.36347 63.5352C1.1957 61.347 0 58.4417 0 55.3479C0 52.2542 1.1957 49.3535 3.36347 47.1653C5.53124 44.9817 8.42008 43.7773 11.4869 43.7773H29.4634C32.5303 43.7773 35.4145 44.9817 37.5869 47.1653C39.7546 49.3489 40.9503 52.2588 40.9503 55.3479C40.9503 57.5775 40.3205 59.7427 39.1248 61.6091C37.9702 63.4111 36.3547 64.85 34.4425 65.7785C33.8218 68.9367 33.2239 71.9845 33.2239 71.9845C33.2148 72.0305 33.1783 72.0627 33.1372 72.0764C33.1327 72.0764 33.1235 72.0764 33.1144 72.0764ZM11.4869 44.0071C5.28023 44.0071 0.228186 49.096 0.228186 55.3479C0.228186 61.5999 5.28023 66.6888 11.4869 66.6888H29.4634C29.4999 66.6888 29.5365 66.7071 29.5547 66.7347L33.0505 71.6765C33.2103 70.8674 33.7123 68.3069 34.228 65.6774C34.2371 65.6406 34.2599 65.6131 34.2919 65.5947C38.1984 63.7237 40.7222 59.7013 40.7222 55.3479C40.7222 49.096 35.6701 44.0071 29.4634 44.0071H11.4869Z" fill="#282A2F"/>
<path d="M181.536 159.254C181.5 159.254 181.463 159.236 181.445 159.208L179.437 156.372H169.447C165.878 156.372 162.975 153.448 162.975 149.853C162.975 146.258 165.878 143.335 169.447 143.335H179.496C183.065 143.335 185.967 146.258 185.967 149.853C185.967 151.108 185.611 152.331 184.941 153.379C184.297 154.386 183.393 155.195 182.326 155.714C181.979 157.47 181.65 159.157 181.65 159.157C181.641 159.203 181.604 159.236 181.563 159.249C181.55 159.254 181.545 159.254 181.536 159.254ZM169.447 143.564C166.006 143.564 163.204 146.387 163.204 149.853C163.204 153.319 166.006 156.142 169.447 156.142H179.496C179.533 156.142 179.569 156.16 179.587 156.188L181.472 158.854C181.582 158.307 181.842 156.979 182.106 155.613C182.116 155.576 182.138 155.549 182.17 155.53C184.338 154.492 185.735 152.262 185.735 149.849C185.735 146.382 182.933 143.56 179.491 143.56H169.447V143.564Z" fill="#282A2F"/>
<path d="M198.499 26.6029C193.278 26.6029 188.213 25.9409 183.361 24.6216C176.685 22.8057 170.387 19.7487 164.641 15.5333C159.53 11.7821 155.815 7.79192 153.592 5.10268C151.192 2.19277 149.978 0.13791 149.964 0.114925L150.16 0C150.174 0.018388 151.379 2.06405 153.775 4.96936C155.984 7.64942 159.689 11.6258 164.783 15.3586C172.066 20.7003 183.38 26.3638 198.604 26.3638C202.178 26.3638 205.961 26.0512 209.963 25.3525L210.005 25.5777C206.098 26.2627 202.255 26.6029 198.499 26.6029Z" fill="#282A2F"/>
<path d="M71.3083 167C56.8321 147.205 40.2201 140.852 28.8382 139.009C22.3896 137.965 16.8995 138.223 13.4265 138.627C9.66597 139.064 7.39779 139.754 7.37497 139.758L7.30652 139.537C7.32934 139.528 9.6112 138.834 13.39 138.397C16.8767 137.993 22.3896 137.731 28.861 138.779C36.1356 139.956 43.1135 142.512 49.6032 146.373C57.7129 151.2 65.0788 158.096 71.4908 166.862L71.3083 167Z" fill="#282A2F"/>
</g>
<defs>
<clipPath id="clip0_16_515">
<rect width="210" height="167" fill="white"/>
</clipPath>
</defs>
</svg>
