<svg width="16" height="16" viewBox="0 0 16 16" fill="none" xmlns="http://www.w3.org/2000/svg">
<g clip-path="url(#clip0_13_306)">
<path d="M15.414 6.04597L10.3573 0.988639C9.7315 0.364631 8.88378 0.0142212 8.00001 0.0142212C7.11623 0.0142212 6.26851 0.364631 5.64267 0.988639L0.586008 6.04597C0.399625 6.23116 0.251855 6.45151 0.151263 6.69423C0.0506715 6.93695 -0.000740267 7.19723 8.05299e-06 7.45997V14.0046C8.05299e-06 14.5351 0.210722 15.0438 0.585795 15.4189C0.960867 15.7939 1.46958 16.0046 2.00001 16.0046H14C14.5304 16.0046 15.0391 15.7939 15.4142 15.4189C15.7893 15.0438 16 14.5351 16 14.0046V7.45997C16.0008 7.19723 15.9493 6.93695 15.8488 6.69423C15.7482 6.45151 15.6004 6.23116 15.414 6.04597ZM10 14.6713H6.00001V12.0486C6.00001 11.5182 6.21072 11.0095 6.58579 10.6344C6.96087 10.2594 7.46958 10.0486 8.00001 10.0486C8.53044 10.0486 9.03915 10.2594 9.41422 10.6344C9.7893 11.0095 10 11.5182 10 12.0486V14.6713ZM14.6667 14.0046C14.6667 14.1814 14.5964 14.351 14.4714 14.476C14.3464 14.6011 14.1768 14.6713 14 14.6713H11.3333V12.0486C11.3333 11.1646 10.9822 10.3167 10.357 9.69162C9.73191 9.06649 8.88406 8.71531 8.00001 8.71531C7.11595 8.71531 6.26811 9.06649 5.64299 9.69162C5.01786 10.3167 4.66667 11.1646 4.66667 12.0486V14.6713H2.00001C1.8232 14.6713 1.65363 14.6011 1.5286 14.476C1.40358 14.351 1.33334 14.1814 1.33334 14.0046V7.45997C1.33396 7.28329 1.40413 7.11396 1.52867 6.98864L6.58534 1.93331C6.96114 1.55926 7.46979 1.34927 8.00001 1.34927C8.53023 1.34927 9.03888 1.55926 9.41467 1.93331L14.4713 6.99064C14.5954 7.11547 14.6655 7.28399 14.6667 7.45997V14.0046Z" fill="white"/>
</g>
<defs>
<clipPath id="clip0_13_306">
<rect width="16" height="16" fill="white"/>
</clipPath>
</defs>
</svg>
