<svg width="13" height="13" viewBox="0 0 13 13" fill="none" xmlns="http://www.w3.org/2000/svg">
<path d="M6.50003 2.70832C7.24791 2.70832 7.85419 2.10204 7.85419 1.35416C7.85419 0.606277 7.24791 0 6.50003 0C5.75215 0 5.14587 0.606277 5.14587 1.35416C5.14587 2.10204 5.75215 2.70832 6.50003 2.70832Z" fill="#282A2F"/>
<path d="M6.50003 7.85416C7.24791 7.85416 7.85419 7.24788 7.85419 6.5C7.85419 5.75212 7.24791 5.14584 6.50003 5.14584C5.75215 5.14584 5.14587 5.75212 5.14587 6.5C5.14587 7.24788 5.75215 7.85416 6.50003 7.85416Z" fill="#F55C47"/>
<path d="M6.50003 13C7.24791 13 7.85419 12.3937 7.85419 11.6458C7.85419 10.898 7.24791 10.2917 6.50003 10.2917C5.75215 10.2917 5.14587 10.898 5.14587 11.6458C5.14587 12.3937 5.75215 13 6.50003 13Z" fill="#282A2F"/>
</svg>
