<svg width="27" height="27" viewBox="0 0 27 27" fill="none" xmlns="http://www.w3.org/2000/svg">
<g clip-path="url(#clip0_473_4561)">
<path d="M21.375 0H5.625C4.13371 0.00178634 2.704 0.594992 1.6495 1.6495C0.594992 2.704 0.00178634 4.13371 0 5.625L0 21.375C0.00178634 22.8663 0.594992 24.296 1.6495 25.3505C2.704 26.405 4.13371 26.9982 5.625 27V23.625C5.625 21.5364 6.45469 19.5334 7.93153 18.0565C9.40838 16.5797 11.4114 15.75 13.5 15.75C15.5886 15.75 17.5916 16.5797 19.0685 18.0565C20.5453 19.5334 21.375 21.5364 21.375 23.625V27C22.8663 26.9982 24.296 26.405 25.3505 25.3505C26.405 24.296 26.9982 22.8663 27 21.375V5.625C26.9982 4.13371 26.405 2.704 25.3505 1.6495C24.296 0.594992 22.8663 0.00178634 21.375 0V0ZM13.5 13.5C12.61 13.5 11.74 13.2361 10.9999 12.7416C10.2599 12.2471 9.68314 11.5443 9.34254 10.7221C9.00195 9.89981 8.91283 8.99501 9.08647 8.12209C9.2601 7.24918 9.68868 6.44736 10.318 5.81802C10.9474 5.18868 11.7492 4.7601 12.6221 4.58647C13.495 4.41283 14.3998 4.50195 15.2221 4.84254C16.0443 5.18314 16.7471 5.75991 17.2416 6.49993C17.7361 7.23995 18 8.10998 18 9C18 10.1935 17.5259 11.3381 16.682 12.182C15.8381 13.0259 14.6935 13.5 13.5 13.5Z" fill="#282A2F"/>
<path d="M13.5 11.25C14.7426 11.25 15.75 10.2426 15.75 9C15.75 7.75736 14.7426 6.75 13.5 6.75C12.2574 6.75 11.25 7.75736 11.25 9C11.25 10.2426 12.2574 11.25 13.5 11.25Z" fill="#282A2F"/>
<path d="M13.5 18C12.0087 18.0018 10.579 18.595 9.5245 19.6495C8.46999 20.704 7.87679 22.1337 7.875 23.625V27H19.125V23.625C19.1232 22.1337 18.53 20.704 17.4755 19.6495C16.421 18.595 14.9913 18.0018 13.5 18Z" fill="#282A2F"/>
</g>
<defs>
<clipPath id="clip0_473_4561">
<rect width="27" height="27" fill="white"/>
</clipPath>
</defs>
</svg>
