<svg width="16" height="16" viewBox="0 0 16 16" fill="none" xmlns="http://www.w3.org/2000/svg">
<g clip-path="url(#clip0_13_325)">
<path d="M2.6667 4C2.40387 4.00068 2.14351 3.94925 1.90068 3.84866C1.65786 3.74808 1.43739 3.60034 1.25203 3.414L0.222701 2.498C0.090623 2.38024 0.0107332 2.21484 0.000606265 2.03818C-0.0095207 1.86152 0.0509447 1.68807 0.168701 1.556C0.286457 1.42392 0.451858 1.34403 0.628517 1.3339C0.805176 1.32377 0.978623 1.38424 1.1107 1.502L2.16737 2.44466C2.22786 2.51259 2.30161 2.56743 2.38409 2.60579C2.46656 2.64415 2.55601 2.66523 2.64694 2.66773C2.73786 2.67022 2.82834 2.65409 2.9128 2.62031C2.99725 2.58654 3.0739 2.53584 3.13803 2.47133L5.5407 0.183996C5.6699 0.068976 5.83874 0.00867518 6.01157 0.0158298C6.1844 0.0229845 6.34768 0.0970345 6.46693 0.222339C6.58618 0.347644 6.65205 0.514392 6.65064 0.687363C6.64923 0.860335 6.58064 1.02599 6.45937 1.14933L4.0667 3.42533C3.88255 3.60841 3.66412 3.75339 3.4239 3.852C3.18367 3.95061 2.92637 4.0009 2.6667 4ZM16 2.66666C16 2.48985 15.9298 2.32028 15.8048 2.19526C15.6797 2.07023 15.5102 2 15.3334 2H8.6667C8.48989 2 8.32032 2.07023 8.1953 2.19526C8.07027 2.32028 8.00003 2.48985 8.00003 2.66666C8.00003 2.84347 8.07027 3.01304 8.1953 3.13807C8.32032 3.26309 8.48989 3.33333 8.6667 3.33333H15.3334C15.5102 3.33333 15.6797 3.26309 15.8048 3.13807C15.9298 3.01304 16 2.84347 16 2.66666ZM4.0667 8.75866L6.45937 6.48266C6.52615 6.42321 6.58029 6.35093 6.61856 6.27012C6.65684 6.18932 6.67847 6.10164 6.68217 6.01231C6.68587 5.92297 6.67156 5.83381 6.64009 5.75011C6.60863 5.66642 6.56065 5.58991 6.49901 5.52515C6.43737 5.46038 6.36333 5.40867 6.2813 5.3731C6.19927 5.33752 6.11092 5.31882 6.02151 5.31809C5.9321 5.31736 5.84346 5.33462 5.76086 5.36885C5.67826 5.40308 5.60339 5.45357 5.5407 5.51733L3.1407 7.80466C3.01379 7.92602 2.84496 7.99374 2.66937 7.99374C2.49377 7.99374 2.32495 7.92602 2.19803 7.80466L1.13803 6.74799C1.0123 6.62656 0.843898 6.55936 0.6691 6.56088C0.494302 6.5624 0.327094 6.63251 0.203488 6.75612C0.0798831 6.87972 0.00977044 7.04693 0.00825149 7.22173C0.00673255 7.39653 0.0739288 7.56493 0.195368 7.69066L1.25203 8.74733C1.62515 9.12053 2.13064 9.33114 2.65837 9.33326C3.18609 9.33539 3.69326 9.12885 4.06937 8.75866H4.0667ZM16 8C16 7.82318 15.9298 7.65361 15.8048 7.52859C15.6797 7.40357 15.5102 7.33333 15.3334 7.33333H8.6667C8.48989 7.33333 8.32032 7.40357 8.1953 7.52859C8.07027 7.65361 8.00003 7.82318 8.00003 8C8.00003 8.17681 8.07027 8.34638 8.1953 8.4714C8.32032 8.59642 8.48989 8.66666 8.6667 8.66666H15.3334C15.5102 8.66666 15.6797 8.59642 15.8048 8.4714C15.9298 8.34638 16 8.17681 16 8ZM4.0667 14.092L6.4567 11.816C6.52348 11.7565 6.57762 11.6843 6.6159 11.6035C6.65417 11.5227 6.6758 11.435 6.6795 11.3456C6.6832 11.2563 6.66889 11.1671 6.63742 11.0834C6.60596 10.9998 6.55798 10.9232 6.49634 10.8585C6.4347 10.7937 6.36066 10.742 6.27863 10.7064C6.1966 10.6709 6.10825 10.6521 6.01884 10.6514C5.92944 10.6507 5.84079 10.668 5.75819 10.7022C5.67559 10.7364 5.60072 10.7869 5.53803 10.8507L3.13803 13.138C3.0739 13.2025 2.99725 13.2532 2.9128 13.287C2.82834 13.3208 2.73786 13.3369 2.64694 13.3344C2.55601 13.3319 2.46656 13.3108 2.38409 13.2725C2.30161 13.2341 2.22786 13.1793 2.16737 13.1113L1.1107 12.1687C0.978623 12.0509 0.805176 11.9904 0.628517 12.0006C0.451858 12.0107 0.286457 12.0906 0.168701 12.2227C0.0509447 12.3547 -0.0095207 12.5282 0.000606265 12.7048C0.0107332 12.8815 0.090623 13.0469 0.222701 13.1647L1.25203 14.0807C1.62515 14.4539 2.13064 14.6645 2.65837 14.6666C3.18609 14.6687 3.69326 14.4622 4.06937 14.092H4.0667ZM16 13.3333C16 13.1565 15.9298 12.9869 15.8048 12.8619C15.6797 12.7369 15.5102 12.6667 15.3334 12.6667H8.6667C8.48989 12.6667 8.32032 12.7369 8.1953 12.8619C8.07027 12.9869 8.00003 13.1565 8.00003 13.3333C8.00003 13.5101 8.07027 13.6797 8.1953 13.8047C8.32032 13.9298 8.48989 14 8.6667 14H15.3334C15.5102 14 15.6797 13.9298 15.8048 13.8047C15.9298 13.6797 16 13.5101 16 13.3333Z" fill="white"/>
</g>
<defs>
<clipPath id="clip0_13_325">
<rect width="16" height="16" fill="white"/>
</clipPath>
</defs>
</svg>
