<svg width="52" height="13" viewBox="0 0 52 13" fill="none" xmlns="http://www.w3.org/2000/svg">
<g clip-path="url(#clip0_473_4545)">
<path d="M45.5 13C49.0899 13 52 10.0899 52 6.5C52 2.91015 49.0899 0 45.5 0C41.9101 0 39 2.91015 39 6.5C39 10.0899 41.9101 13 45.5 13Z" fill="#F55C47"/>
<path d="M31.2 11.7C34.0719 11.7 36.4 9.37193 36.4 6.50005C36.4 3.62817 34.0719 1.30005 31.2 1.30005C28.3281 1.30005 26 3.62817 26 6.50005C26 9.37193 28.3281 11.7 31.2 11.7Z" fill="#F55C47"/>
<path d="M0 6.5001C0 6.5001 0 7.8001 0 6.5001L19.5 10.4001C22.1 10.4001 23.4 9.1001 23.4 6.5001C23.4 3.9001 20.8 2.6001 19.5 2.6001L0 6.5001C0 6.5001 0 5.2001 0 6.5001Z" fill="#F55C47"/>
</g>
<defs>
<clipPath id="clip0_473_4545">
<rect width="52" height="13" fill="white"/>
</clipPath>
</defs>
</svg>
